<?xml version="1.0" standalone="no"?>
<!DOCTYPE svg PUBLIC "-//W3C//DTD SVG 20010904//EN"
 "http://www.w3.org/TR/2001/REC-SVG-20010904/DTD/svg10.dtd">
<svg version="1.0" xmlns="http://www.w3.org/2000/svg"
 width="441.000000pt" height="441.000000pt" viewBox="0 0 441.000000 441.000000"
 preserveAspectRatio="xMidYMid meet">
<metadata>
Created by potrace 1.11, written by Peter Selinger 2001-2013
</metadata>
<g transform="translate(0.000000,441.000000) scale(0.100000,-0.100000)"
fill="#000000" stroke="none">
<path d="M1010 4297 c-3 -3 -24 -7 -48 -11 -369 -50 -765 -400 -890 -786 -84
-257 -63 -598 56 -902 16 -42 27 -79 24 -82 -3 -3 -1 -6 4 -6 11 0 41 -68 36
-83 -1 -5 1 -6 6 -3 4 3 23 -24 40 -60 31 -62 42 -95 22 -64 -7 10 -10 11 -10
2 0 -7 7 -15 15 -18 8 -4 13 -10 10 -14 -10 -15 125 -237 279 -460 95 -137
271 -366 351 -456 6 -6 30 -35 55 -65 193 -227 686 -709 975 -950 55 -46 105
-88 111 -94 6 -5 28 -23 49 -40 21 -16 43 -35 49 -40 6 -6 22 -18 35 -27 23
-16 25 -15 130 70 58 47 108 89 111 92 3 3 37 32 75 64 283 237 728 675 966
951 157 183 342 425 476 625 42 63 193 325 193 335 0 6 -24 0 -39 -9 -10 -7
-12 -6 -6 4 5 9 4 11 -4 6 -6 -4 -9 -11 -6 -16 6 -9 -26 -75 -55 -116 -13 -18
-26 -21 -82 -21 -37 0 -65 4 -62 8 3 5 -89 9 -204 9 l-209 0 -69 -77 c-38 -42
-80 -88 -92 -102 -13 -14 -63 -69 -110 -121 -151 -165 -188 -200 -209 -200
-49 0 -58 23 -173 430 -61 217 -120 426 -132 464 l-20 69 -117 -314 c-65 -173
-191 -512 -281 -754 -90 -241 -172 -447 -181 -456 -10 -10 -26 -16 -36 -14
-10 2 -23 4 -30 4 -19 1 -31 31 -48 117 -8 44 -19 102 -25 129 -5 28 -12 66
-15 85 -3 19 -8 42 -10 50 -2 8 -6 32 -9 53 -4 21 -13 71 -21 110 -8 40 -26
135 -40 212 -51 272 -54 287 -60 315 -5 27 -22 115 -30 165 -11 62 -47 253
-65 345 -11 52 -22 111 -25 130 -5 31 -17 96 -20 110 -1 3 -5 28 -9 55 -5 28
-11 56 -15 62 -4 7 -69 -176 -146 -406 -77 -231 -146 -428 -153 -438 -12 -17
-39 -18 -404 -21 -216 -1 -397 -6 -402 -11 -6 -4 -40 -7 -75 -7 l-65 1 -31 60
c-18 33 -39 61 -49 63 -21 4 -21 19 2 26 9 3 111 5 227 6 116 1 318 2 450 3
l239 2 177 524 c186 556 189 561 244 547 34 -9 49 -47 75 -191 12 -66 23 -127
24 -135 12 -64 19 -104 31 -165 8 -38 23 -119 34 -180 22 -116 28 -149 36
-190 7 -37 15 -76 21 -114 3 -18 8 -43 10 -55 2 -11 15 -79 29 -151 13 -71 29
-155 35 -185 6 -30 13 -70 16 -89 3 -18 8 -43 10 -55 3 -11 14 -68 25 -126 10
-58 21 -114 23 -125 2 -11 9 -49 16 -85 7 -36 14 -76 17 -90 2 -13 6 -26 8
-28 3 -4 -13 -46 299 788 134 360 247 662 251 671 14 37 82 43 103 9 6 -10 75
-241 152 -512 78 -271 142 -494 144 -495 3 -3 18 13 171 182 124 136 111 122
168 184 27 29 59 56 70 60 12 4 164 7 337 6 379 -2 397 0 421 40 55 92 135
288 173 421 27 94 32 113 41 174 3 19 9 59 14 87 9 59 7 257 -3 318 -62 363
-312 699 -641 863 -165 83 -289 111 -460 107 -125 -3 -143 -5 -235 -31 -195
-56 -415 -216 -583 -424 -73 -91 -188 -264 -229 -344 -16 -32 -31 -56 -33 -54
-3 2 -19 31 -36 64 -17 32 -59 102 -93 154 -211 328 -463 535 -741 610 -74 20
-312 40 -325 27z"/>
<path d="M200 2401 c0 -6 4 -13 10 -16 6 -3 7 1 4 9 -7 18 -14 21 -14 7z"/>
<path d="M220 2364 c0 -6 7 -19 16 -30 14 -18 14 -18 3 6 -14 31 -19 36 -19
24z"/>
<path d="M4035 2219 c-4 -6 -5 -12 -2 -15 2 -3 7 2 10 11 7 17 1 20 -8 4z"/>
</g>
</svg>
